<svg width="50" height="50" viewBox="0 0 50 50" fill="none" xmlns="http://www.w3.org/2000/svg">
<circle cx="25" cy="25" r="25" fill="white"/>
<path d="M23.653 14.0821C18.1218 14.6752 13.6727 19.0644 13.0715 24.4025C12.4703 29.9779 15.7169 34.9601 20.6469 36.8581C21.0076 36.9767 21.3683 36.7395 21.3683 36.265V34.367C21.3683 34.367 20.8874 34.4856 20.2861 34.4856C18.6027 34.4856 17.8813 33.0621 17.761 32.2317C17.6408 31.7572 17.4003 31.4014 17.0396 31.0455C16.6788 30.9269 16.5586 30.9269 16.5586 30.8082C16.5586 30.571 16.9193 30.571 17.0396 30.571C17.761 30.571 18.3622 31.4014 18.6027 31.7572C19.2039 32.7062 19.9254 32.9435 20.2861 32.9435C20.7671 32.9435 21.1278 32.8249 21.3683 32.7062C21.4886 31.8759 21.8493 31.0455 22.5708 30.571C19.8052 29.9779 17.761 28.4357 17.761 25.826C17.761 24.5211 18.3622 23.2162 19.2039 22.2672C19.0837 22.03 18.9635 21.4369 18.9635 20.6065C18.9635 20.132 18.9635 19.4202 19.3242 18.7085C19.3242 18.7085 21.0076 18.7085 22.691 20.2506C23.2922 20.0134 24.1339 19.8947 24.9756 19.8947C25.8173 19.8947 26.659 20.0134 27.3805 20.2506C28.9437 18.7085 30.7473 18.7085 30.7473 18.7085C30.9878 19.4202 30.9878 20.132 30.9878 20.6065C30.9878 21.5555 30.8676 22.03 30.7473 22.2672C31.589 23.2162 32.1903 24.4025 32.1903 25.826C32.1903 28.4357 30.1461 29.9779 27.3805 30.571C28.102 31.1641 28.5829 32.2317 28.5829 33.2994V36.3836C28.5829 36.7395 28.9437 37.0954 29.4247 36.9767C33.8737 35.1974 37 30.9269 37 25.9446C37 18.8271 30.8676 13.2517 23.653 14.0821Z" fill="#171515"/>
</svg>
