<svg width="50" height="50" viewBox="0 0 50 50" fill="none" xmlns="http://www.w3.org/2000/svg">
<circle cx="25" cy="25" r="25" fill="white"/>
<path d="M19.0386 36.0369H14.214V20.5002H19.0386V36.0369ZM16.6237 18.3808C15.0809 18.3808 13.8296 17.103 13.8296 15.5602C13.8296 14.8192 14.124 14.1085 14.648 13.5845C15.172 13.0605 15.8827 12.7661 16.6237 12.7661C17.3647 12.7661 18.0754 13.0605 18.5994 13.5845C19.1234 14.1085 19.4178 14.8192 19.4178 15.5602C19.4178 17.103 18.1659 18.3808 16.6237 18.3808ZM37.0957 36.0369H32.2814V28.4737C32.2814 26.6712 32.2451 24.3597 29.773 24.3597C27.2646 24.3597 26.8802 26.318 26.8802 28.3438V36.0369H22.0608V20.5002H26.688V22.6195H26.7555C27.3997 21.3988 28.9731 20.1106 31.3204 20.1106C36.2033 20.1106 37.1009 23.326 37.1009 27.5023V36.0369H37.0957Z" fill="#0A66C2"/>
</svg>
