<svg width="50" height="50" viewBox="0 0 50 50" fill="none" xmlns="http://www.w3.org/2000/svg">
<circle cx="25" cy="25" r="25" fill="white"/>
<path d="M15.7426 20.0248C15.7737 19.7183 15.6542 19.4118 15.4257 19.2041L13.083 16.3783V15.9575H20.3656L25.9965 28.3048L30.9468 15.9575H37.8918V16.3783L35.8867 18.3002C35.7153 18.4301 35.627 18.6483 35.6634 18.8612V32.9902C35.627 33.2032 35.7153 33.4214 35.8867 33.5512L37.8451 35.4732V35.8939H27.9911V35.4732L30.0222 33.5045C30.2196 33.3071 30.2196 33.2448 30.2196 32.9435V21.526L24.5732 35.8576H23.8096L17.2438 21.526V31.1306C17.1866 31.5358 17.3217 31.9409 17.6074 32.2318L20.2462 35.4316V35.8524H12.7661V35.4368L15.4049 32.2318C15.6854 31.9409 15.8153 31.5306 15.7426 31.1306V20.0248Z" fill="#00AB6C"/>
</svg>
