<svg width="14" height="15" viewBox="0 0 14 15" fill="none" xmlns="http://www.w3.org/2000/svg">
<path d="M0 0.5V14.5H14V0.5H0ZM11.6313 3.81563L10.8813 4.53438C10.8156 4.58438 10.7844 4.66563 10.7969 4.74375V10.0344C10.7844 10.1156 10.8156 10.1969 10.8813 10.2437L11.6156 10.9625V11.1219H7.92812V10.9688L8.6875 10.2312C8.7625 10.1562 8.7625 10.1344 8.7625 10.0219V5.74375L6.65 11.1062H6.36562L3.90625 5.74375V9.3375C3.88438 9.4875 3.9375 9.64062 4.04375 9.75L5.03125 10.9469V11.1062H2.225V10.9469L3.2125 9.75C3.31875 9.64062 3.36563 9.4875 3.34063 9.3375V5.18125C3.35313 5.06563 3.30937 4.95312 3.22187 4.875L2.34375 3.81563V3.65625H5.07188L7.17812 8.28125L9.03125 3.65938H11.6313V3.81563Z" fill="white"/>
</svg>
