<svg width="32" height="32" viewBox="0 0 32 32" fill="none" xmlns="http://www.w3.org/2000/svg">
<path d="M13.9452 31.9688L10.8954 30.8625C10.5754 30.75 10.3954 30.3312 10.4854 29.9312L17.3099 0.541467C17.3999 0.141437 17.7349 -0.0835797 18.0548 0.0289288L21.1046 1.13526C21.4246 1.24777 21.6046 1.66655 21.5146 2.06658L14.6901 31.4563C14.5951 31.8563 14.2651 32.0876 13.9452 31.9688ZM8.24561 24.9558L10.4204 22.0556C10.6504 21.7493 10.6354 21.2618 10.3804 20.9805L5.85079 15.9989L10.3804 11.0173C10.6354 10.736 10.6554 10.2484 10.4204 9.94218L8.24561 7.04196C8.02062 6.74193 7.64065 6.72318 7.39567 7.0107L0.191235 15.4488C-0.063745 15.7426 -0.063745 16.2489 0.191235 16.5427L7.39567 24.9871C7.64065 25.2746 8.02062 25.2621 8.24561 24.9558ZM24.6043 24.9933L31.8088 16.5489C32.0637 16.2551 32.0637 15.7489 31.8088 15.4551L24.6043 7.00445C24.3643 6.72318 23.9844 6.73568 23.7544 7.03571L21.5796 9.93592C21.3496 10.2422 21.3646 10.7297 21.6196 11.011L26.1492 15.9989L21.6196 20.9805C21.3646 21.2618 21.3446 21.7493 21.5796 22.0556L23.7544 24.9558C23.9794 25.2621 24.3593 25.2746 24.6043 24.9933Z" fill="#2E4B83"/>
</svg>
