<svg width="238" height="193" viewBox="0 0 238 193" fill="none" xmlns="http://www.w3.org/2000/svg">
<path d="M78.6504 132.688C77.7467 132.688 76.843 132.819 75.9809 133.098C71.0804 134.685 65.9265 135.703 60.5005 135.703C55.0744 135.703 49.9206 134.685 45.0163 133.098C44.1542 132.819 43.2542 132.688 42.3505 132.688C18.8841 132.688 -0.12417 151.716 0.000610851 175.14C0.0535482 185.039 8.21725 193 18.1506 193H102.85C112.784 193 120.947 185.039 121 175.14C121.125 151.716 102.117 132.688 78.6504 132.688ZM60.5005 120.625C80.5486 120.625 96.8004 104.424 96.8004 84.4375C96.8004 64.4514 80.5486 48.25 60.5005 48.25C40.4523 48.25 24.2006 64.4514 24.2006 84.4375C24.2006 104.424 40.4523 120.625 60.5005 120.625Z" fill="#DE5C95"/>
<path d="M219.35 0H74.1499C64.141 0 56 8.38721 56 18.6931V36.1875C64.8557 36.1875 73.0534 38.7432 80.1999 42.8973V24.125H213.3V132.688H189.1V108.562H140.7V132.688H111.872C119.094 138.979 124.395 147.287 126.879 156.812H219.35C229.359 156.812 237.5 148.425 237.5 138.119V18.6931C237.5 8.38721 229.359 0 219.35 0Z" fill="#8AB3FF"/>
</svg>
